<?xml version="1.0" standalone="no"?>
<!DOCTYPE svg PUBLIC "-//W3C//DTD SVG 20010904//EN"
 "http://www.w3.org/TR/2001/REC-SVG-20010904/DTD/svg10.dtd">
<svg version="1.0" xmlns="http://www.w3.org/2000/svg"
 width="1417.000000pt" height="1417.000000pt" viewBox="0 0 1417.000000 1417.000000"
 preserveAspectRatio="xMidYMid meet">
<metadata>
Created by potrace 1.14, written by Peter Selinger 2001-2017
</metadata>
<g transform="translate(0.000000,1417.000000) scale(0.100000,-0.100000)"
fill="#000000" stroke="none">
<path d="M6897 14164 c-1 -1 -65 -4 -142 -8 -77 -3 -162 -8 -190 -11 -27 -2
-84 -6 -125 -9 -41 -4 -84 -8 -95 -10 -11 -2 -51 -7 -90 -11 -81 -8 -119 -13
-195 -25 -30 -5 -73 -12 -95 -15 -37 -5 -170 -28 -240 -41 -24 -4 -126 -26
-234 -49 -9 -2 -86 -22 -171 -44 -85 -23 -163 -43 -173 -45 -203 -52 -689
-229 -952 -348 -255 -115 -554 -272 -780 -410 -110 -67 -358 -228 -365 -237
-3 -4 -18 -15 -35 -26 -33 -21 -254 -183 -271 -200 -6 -5 -26 -21 -44 -35 -32
-24 -60 -47 -159 -129 -416 -345 -864 -823 -1176 -1253 -67 -93 -291 -429
-342 -513 -154 -257 -312 -560 -413 -790 -28 -66 -58 -133 -65 -150 -113 -256
-302 -830 -350 -1063 -2 -9 -12 -57 -24 -107 -11 -49 -22 -101 -25 -115 -2
-14 -9 -45 -14 -70 -6 -25 -13 -63 -17 -85 -6 -45 -11 -76 -25 -155 -5 -30
-12 -71 -15 -90 -4 -19 -8 -53 -10 -74 -3 -21 -7 -55 -10 -75 -2 -20 -7 -56
-10 -81 -3 -25 -7 -63 -10 -85 -5 -40 -8 -73 -22 -280 -16 -220 -8 -938 11
-1055 3 -14 7 -59 10 -100 4 -41 8 -88 11 -105 2 -16 9 -70 15 -120 15 -121
19 -146 25 -175 2 -13 7 -42 11 -65 23 -154 92 -483 114 -541 6 -16 11 -30 10
-32 -16 -28 205 -706 305 -937 7 -16 32 -75 55 -130 99 -233 282 -588 433
-840 181 -302 479 -715 686 -950 24 -27 71 -81 105 -120 82 -95 451 -464 555
-556 46 -41 103 -90 125 -110 32 -29 184 -152 286 -232 226 -179 648 -454 935
-610 121 -66 466 -233 570 -277 55 -23 114 -48 130 -55 100 -43 314 -122 450
-166 55 -17 109 -35 120 -40 11 -4 29 -10 40 -12 11 -3 52 -15 90 -27 139 -41
489 -127 597 -145 18 -3 40 -8 48 -10 8 -2 31 -7 50 -10 19 -3 58 -10 85 -15
28 -5 68 -12 90 -15 23 -3 50 -7 60 -9 11 -2 45 -7 75 -11 30 -3 66 -8 80 -10
61 -8 128 -16 165 -20 22 -2 81 -7 130 -12 113 -10 1114 -10 1215 0 41 4 91 9
110 12 19 2 60 7 90 10 30 3 66 8 80 10 14 3 50 7 80 10 30 3 62 8 70 10 8 2
35 7 60 10 25 3 52 8 60 10 8 2 33 6 55 10 72 10 297 55 405 81 58 14 112 27
120 29 44 11 181 48 220 60 25 7 99 30 165 51 421 129 972 368 1335 578 47 27
101 58 120 68 159 90 473 300 673 450 114 86 373 298 461 378 274 248 579 566
766 799 19 24 47 58 61 75 14 17 58 74 97 126 39 52 75 100 80 105 22 28 138
195 213 310 200 304 402 673 539 985 23 52 50 114 61 137 10 23 19 45 19 48 0
3 8 25 19 48 38 86 165 438 187 517 2 8 24 83 49 165 25 83 47 159 49 170 2
11 18 76 35 145 17 69 33 136 35 150 3 14 15 72 26 130 12 58 23 114 24 125 2
11 6 34 9 50 3 17 9 48 12 70 3 22 8 51 10 65 8 50 35 256 40 315 3 33 8 78
10 100 16 156 20 269 20 645 0 376 -5 541 -20 660 -2 19 -6 62 -10 95 -3 33
-8 76 -10 95 -3 19 -7 53 -9 75 -3 22 -12 85 -21 140 -9 55 -18 116 -21 135
-11 76 -58 309 -85 425 -194 823 -534 1602 -1012 2320 -71 108 -346 481 -379
516 -7 8 -47 55 -88 104 -246 296 -576 625 -891 887 -548 456 -1088 785 -1794
1093 -323 141 -768 283 -1180 376 -164 37 -224 49 -325 65 -19 3 -42 7 -50 9
-8 3 -46 9 -85 15 -38 5 -81 12 -95 14 -14 3 -68 10 -120 16 -232 27 -272 31
-530 46 -92 5 -538 12 -543 8z m638 -418 c33 -3 93 -8 133 -11 40 -2 94 -7
120 -10 99 -12 208 -26 232 -30 14 -2 43 -6 65 -10 141 -20 463 -83 550 -106
22 -6 51 -13 65 -16 107 -19 545 -157 781 -246 372 -140 850 -384 1230 -628
496 -318 1014 -766 1399 -1209 36 -41 67 -77 70 -80 19 -17 250 -313 317 -405
511 -706 870 -1477 1082 -2330 39 -158 92 -419 106 -525 2 -14 8 -52 13 -85
10 -57 16 -104 28 -205 2 -25 7 -65 10 -90 22 -192 29 -348 28 -695 0 -304 -6
-468 -19 -575 -2 -19 -7 -64 -10 -100 -3 -36 -10 -96 -15 -135 -5 -38 -12 -90
-15 -115 -9 -69 -46 -286 -60 -357 -3 -13 -7 -35 -10 -50 -78 -391 -256 -957
-405 -1289 -12 -27 -29 -65 -37 -84 -30 -68 -193 -396 -236 -476 -121 -223
-306 -514 -462 -729 -76 -104 -259 -339 -290 -371 -5 -6 -32 -37 -60 -69 -27
-33 -72 -84 -100 -114 -59 -67 -433 -441 -490 -491 -377 -329 -683 -554 -1070
-787 -11 -7 -27 -15 -35 -19 -8 -4 -31 -17 -50 -29 -147 -90 -424 -228 -725
-360 -148 -65 -448 -174 -647 -234 -164 -50 -500 -135 -573 -146 -22 -4 -56
-10 -75 -15 -19 -5 -48 -11 -65 -14 -16 -3 -69 -12 -116 -20 -48 -8 -106 -18
-130 -21 -24 -3 -60 -8 -79 -10 -19 -3 -55 -8 -80 -11 -25 -3 -56 -7 -70 -9
-14 -2 -61 -7 -105 -11 -44 -4 -93 -8 -110 -10 -245 -24 -817 -24 -1085 1
-120 11 -178 17 -205 20 -16 2 -73 9 -125 16 -52 6 -104 13 -115 15 -11 2 -42
7 -70 10 -27 4 -53 8 -57 10 -4 3 -26 7 -50 10 -178 24 -584 124 -868 215
-408 131 -906 348 -1239 542 -47 27 -106 61 -131 75 -252 142 -755 506 -976
707 -6 5 -45 39 -85 75 -98 86 -407 395 -494 494 -39 44 -77 86 -85 95 -8 9
-44 52 -80 96 -36 44 -73 89 -83 100 -41 45 -250 328 -330 447 -349 520 -620
1072 -810 1653 -49 149 -86 269 -93 300 -1 6 -16 64 -33 130 -17 66 -33 129
-36 140 -2 11 -13 61 -24 112 -12 51 -23 109 -27 130 -3 21 -7 45 -9 53 -2 8
-7 31 -10 50 -3 19 -8 47 -11 62 -3 15 -7 39 -9 55 -2 15 -8 57 -14 93 -11 71
-18 130 -35 295 -36 342 -41 854 -11 1200 2 28 7 83 10 123 4 40 8 83 10 95 3
21 6 42 21 162 3 28 8 59 10 70 3 11 7 40 10 65 15 131 125 623 174 785 233
760 482 1291 884 1890 87 130 271 382 333 456 70 83 213 251 248 289 72 81
448 454 530 526 721 635 1568 1113 2455 1384 58 18 124 38 147 46 62 20 392
99 513 123 58 12 116 23 130 26 34 7 68 13 110 19 44 6 133 20 140 21 3 1 37
5 75 9 39 5 78 10 87 12 9 1 49 6 90 9 40 4 87 9 103 11 17 1 82 6 145 9 63 4
117 9 119 11 6 5 702 -4 766 -10z"/>
<path d="M8121 9754 l-303 -304 -42 24 c-250 149 -457 209 -716 208 -830 -2
-1442 -783 -1249 -1592 113 -473 487 -844 962 -956 l77 -18 0 -230 0 -231 -88
-21 c-783 -187 -1207 -1060 -870 -1794 27 -60 94 -178 107 -190 4 -3 20 -25
36 -49 46 -68 194 -212 283 -274 225 -159 475 -239 747 -240 472 -2 914 261
1140 678 54 101 100 225 126 345 30 135 33 389 6 515 -38 180 -109 346 -209
492 -68 99 -221 253 -319 320 -139 95 -326 178 -461 203 -29 6 -55 14 -58 19
-3 5 -5 110 -5 232 l1 223 24 6 c14 4 63 18 110 30 133 36 263 97 389 184 79
54 228 195 277 261 16 22 32 42 35 45 13 11 106 178 132 236 42 95 79 224 95
334 4 25 7 113 7 195 -1 118 -6 172 -24 255 -35 162 -101 320 -184 442 l-26
37 311 311 312 311 -150 150 c-82 82 -153 149 -159 149 -5 -1 -147 -138 -314
-306z m-901 -518 c354 -63 647 -363 697 -713 11 -74 7 -244 -7 -304 -89 -393
-425 -675 -810 -682 -134 -2 -202 6 -298 38 -281 94 -496 324 -567 605 -21 82
-25 123 -26 210 0 104 6 140 37 249 48 163 134 291 284 421 64 56 179 119 275
150 121 40 278 50 415 26z m40 -3021 c335 -79 598 -357 655 -695 60 -351 -114
-714 -426 -889 -56 -31 -179 -83 -179 -76 0 3 -12 0 -26 -6 -82 -31 -310 -34
-419 -5 -274 71 -499 268 -596 520 -154 399 -2 838 366 1055 85 50 219 99 295
108 25 3 47 7 49 9 10 9 217 -6 281 -21z"/>
</g>
</svg>
