<svg id="Layer_1" data-name="Layer 1" xmlns="http://www.w3.org/2000/svg" viewBox="0 0 800 600"><path d="M304.31,40.82C330.6,15.68,361.07,1.31,393.56,1.31c35,0,67.67,16.68,95.28,45.54" style="fill:none;stroke:#181ea9;stroke-miterlimit:10;stroke-width:0.6000000238418579px"/><path d="M156.84,117.41A301.12,301.12,0,0,1,197.1,74.66" style="fill:none;stroke:#181ea9;stroke-miterlimit:10;stroke-width:0.6000000238418579px"/><path d="M420.92,565.53c-8.19,21-17.47,32.9-27.32,32.9-11.08,0-21.46-15-30.37-41.28" style="fill:none;stroke:#181ea9;stroke-miterlimit:10;stroke-width:0.6000000238418579px"/><path d="M440.65,484.28c-1.48,9.34-3.06,18.24-4.74,26.63" style="fill:none;stroke:#181ea9;stroke-miterlimit:10;stroke-width:0.6000000238418579px"/><path d="M436.1,89.49q2.5,12.63,4.7,26.69l.07.44" style="fill:none;stroke:#181ea9;stroke-miterlimit:10;stroke-width:0.6000000238418579px"/><path d="M363,42.88C372,16.3,382.44,1,393.6,1c10,0,19.41,12.22,27.68,33.83" style="fill:none;stroke:#181ea9;stroke-miterlimit:10;stroke-width:0.6000000238418579px"/><path d="M346.33,116.63c0-.15.05-.3.07-.45,2-12.5,4.1-24.21,6.42-35" style="fill:none;stroke:#181ea9;stroke-miterlimit:10;stroke-width:0.6000000238418579px"/><path d="M353,519c-2.32-10.7-4.46-22.3-6.41-34.7" style="fill:none;stroke:#181ea9;stroke-miterlimit:10;stroke-width:0.6000000238418579px"/><path d="M135.43,149.36q7.5-12.84,16.21-24.83" style="fill:none;stroke:#181ea9;stroke-miterlimit:10;stroke-width:0.6000000238418579px"/><path d="M101.57,236.31q2.61-12,6.15-23.59" style="fill:none;stroke:#181ea9;stroke-miterlimit:10;stroke-width:0.6000000238418579px"/><path d="M96,273.4Q97.21,259,99.83,245" style="fill:none;stroke:#181ea9;stroke-miterlimit:10;stroke-width:0.6000000238418579px"/><path d="M100,355.94q-2.76-14.6-4.09-29.67" style="fill:none;stroke:#181ea9;stroke-miterlimit:10;stroke-width:0.6000000238418579px"/><path d="M107.82,387.55q-3.46-11.31-6-23" style="fill:none;stroke:#181ea9;stroke-miterlimit:10;stroke-width:0.6000000238418579px"/><path d="M152.33,476.36a299.19,299.19,0,0,1-16.73-25.5" style="fill:none;stroke:#181ea9;stroke-miterlimit:10;stroke-width:0.6000000238418579px"/><path d="M630.07,483.14a302,302,0,0,1-34.13,37.08" style="fill:none;stroke:#181ea9;stroke-miterlimit:10;stroke-width:0.6000000238418579px"/><path d="M656.93,441.94a296.75,296.75,0,0,1-21.67,34.3" style="fill:none;stroke:#181ea9;stroke-miterlimit:10;stroke-width:0.6000000238418579px"/><path d="M685.71,364.65a295.16,295.16,0,0,1-9.28,32.92" style="fill:none;stroke:#181ea9;stroke-miterlimit:10;stroke-width:0.6000000238418579px"/><path d="M690.33,338.05q-1.16,9.07-2.85,18" style="fill:none;stroke:#181ea9;stroke-miterlimit:10;stroke-width:0.6000000238418579px"/><path d="M687.68,245q1.64,8.79,2.75,17.75" style="fill:none;stroke:#181ea9;stroke-miterlimit:10;stroke-width:0.6000000238418579px"/><path d="M676.54,202.69A296,296,0,0,1,686,236.37" style="fill:none;stroke:#181ea9;stroke-miterlimit:10;stroke-width:0.6000000238418579px"/><path d="M635.73,124.34a299,299,0,0,1,21.36,33.95" style="fill:none;stroke:#181ea9;stroke-miterlimit:10;stroke-width:0.6000000238418579px"/><path d="M596.11,79.89a300.49,300.49,0,0,1,34.34,37.41" style="fill:none;stroke:#181ea9;stroke-miterlimit:10;stroke-width:0.6000000238418579px"/><path d="M313,538.51a28.34,28.34,0,1,1-28.34-28.34A28.19,28.19,0,0,1,313,538.51Z" style="fill:none;stroke:#181ea9;stroke-miterlimit:10;stroke-width:0.6000000238418579px"/><path d="M121.52,299.84A26.46,26.46,0,0,0,96,273.4h-.88a26.45,26.45,0,1,0,0,52.9l.86,0A26.44,26.44,0,0,0,121.52,299.84Z" style="fill:none;stroke:#181ea9;stroke-miterlimit:10;stroke-width:0.6000000238418579px"/><rect x="405.84" y="523.71" width="47.24" height="29.52" style="fill:none;stroke:#181ea9;stroke-miterlimit:10;stroke-width:0.6000000238418579px"/><rect x="260.96" y="523.75" width="47.24" height="29.52" transform="translate(-253.93 823.1) rotate(-90)" style="fill:none;stroke:#181ea9;stroke-miterlimit:10;stroke-width:0.6000000238418579px"/><line x1="269.89" y1="521.67" x2="299.42" y2="521.67" style="fill:none;stroke:#181ea9;stroke-miterlimit:10;stroke-width:0.6000000238418579px"/><line x1="269.89" y1="528.17" x2="299.42" y2="528.17" style="fill:none;stroke:#181ea9;stroke-miterlimit:10;stroke-width:0.6000000238418579px"/><line x1="269.89" y1="534.96" x2="299.42" y2="534.96" style="fill:none;stroke:#181ea9;stroke-miterlimit:10;stroke-width:0.6000000238418579px"/><rect x="550.64" y="523.75" width="47.24" height="29.52" transform="translate(35.75 1112.78) rotate(-90)" style="fill:none;stroke:#181ea9;stroke-miterlimit:10;stroke-width:0.6000000238418579px"/><line x1="559.57" y1="521.67" x2="589.1" y2="521.67" style="fill:none;stroke:#181ea9;stroke-miterlimit:10;stroke-width:0.6000000238418579px"/><line x1="559.57" y1="528.17" x2="589.1" y2="528.17" style="fill:none;stroke:#181ea9;stroke-miterlimit:10;stroke-width:0.6000000238418579px"/><line x1="559.57" y1="534.96" x2="589.1" y2="534.96" style="fill:none;stroke:#181ea9;stroke-miterlimit:10;stroke-width:0.6000000238418579px"/><rect x="339.8" y="528.15" width="33.17" height="20.73" transform="translate(-182.13 894.9) rotate(-90)" style="fill:none;stroke:#181ea9;stroke-miterlimit:10;stroke-width:0.6000000238418579px"/><line x1="346.07" y1="526.69" x2="366.8" y2="526.69" style="fill:none;stroke:#181ea9;stroke-miterlimit:10;stroke-width:0.6000000238418579px"/><line x1="346.07" y1="531.25" x2="366.8" y2="531.25" style="fill:none;stroke:#181ea9;stroke-miterlimit:10;stroke-width:0.6000000238418579px"/><rect x="484.67" y="528.12" width="33.17" height="20.73" style="fill:none;stroke:#181ea9;stroke-miterlimit:10;stroke-width:0.6000000238418579px"/><rect x="196.24" y="528.17" width="33.17" height="20.73" transform="translate(425.66 1077.08) rotate(180)" style="fill:none;stroke:#181ea9;stroke-miterlimit:10;stroke-width:0.6000000238418579px"/><rect x="261.59" y="47.03" width="47.24" height="29.52" transform="translate(223.42 347.01) rotate(-90)" style="fill:none;stroke:#181ea9;stroke-miterlimit:10;stroke-width:0.6000000238418579px"/><line x1="270.51" y1="44.96" x2="300.05" y2="44.96" style="fill:none;stroke:#181ea9;stroke-miterlimit:10;stroke-width:0.6000000238418579px"/><line x1="270.51" y1="51.45" x2="300.05" y2="51.45" style="fill:none;stroke:#181ea9;stroke-miterlimit:10;stroke-width:0.6000000238418579px"/><line x1="270.51" y1="58.25" x2="300.05" y2="58.25" style="fill:none;stroke:#181ea9;stroke-miterlimit:10;stroke-width:0.6000000238418579px"/><rect x="550.68" y="47" width="47.24" height="29.52" style="fill:none;stroke:#181ea9;stroke-miterlimit:10;stroke-width:0.6000000238418579px"/><rect x="406.47" y="47" width="47.24" height="29.52" style="fill:none;stroke:#181ea9;stroke-miterlimit:10;stroke-width:0.6000000238418579px"/><rect x="195.59" y="51.43" width="33.17" height="20.73" transform="translate(150.38 273.97) rotate(-90)" style="fill:none;stroke:#181ea9;stroke-miterlimit:10;stroke-width:0.6000000238418579px"/><line x1="201.85" y1="49.97" x2="222.59" y2="49.97" style="fill:none;stroke:#181ea9;stroke-miterlimit:10;stroke-width:0.6000000238418579px"/><line x1="201.85" y1="54.53" x2="222.59" y2="54.53" style="fill:none;stroke:#181ea9;stroke-miterlimit:10;stroke-width:0.6000000238418579px"/><rect x="340.43" y="51.43" width="33.17" height="20.73" transform="translate(295.22 418.81) rotate(-90)" style="fill:none;stroke:#181ea9;stroke-miterlimit:10;stroke-width:0.6000000238418579px"/><line x1="346.7" y1="49.97" x2="367.43" y2="49.97" style="fill:none;stroke:#181ea9;stroke-miterlimit:10;stroke-width:0.6000000238418579px"/><line x1="346.7" y1="54.53" x2="367.43" y2="54.53" style="fill:none;stroke:#181ea9;stroke-miterlimit:10;stroke-width:0.6000000238418579px"/><rect x="485.27" y="51.43" width="33.17" height="20.73" transform="translate(440.06 563.65) rotate(-90)" style="fill:none;stroke:#181ea9;stroke-miterlimit:10;stroke-width:0.6000000238418579px"/><line x1="491.54" y1="49.97" x2="512.27" y2="49.97" style="fill:none;stroke:#181ea9;stroke-miterlimit:10;stroke-width:0.6000000238418579px"/><line x1="491.54" y1="54.53" x2="512.27" y2="54.53" style="fill:none;stroke:#181ea9;stroke-miterlimit:10;stroke-width:0.6000000238418579px"/><line x1="573.67" y1="359.92" x2="681.99" y2="359.92" style="fill:none;stroke:#181ea9;stroke-miterlimit:10;stroke-width:0.6000000238418579px"/><line x1="456.54" y1="359.92" x2="564.86" y2="359.92" style="fill:none;stroke:#181ea9;stroke-miterlimit:10;stroke-width:0.6000000238418579px"/><line x1="339.41" y1="359.92" x2="447.72" y2="359.92" style="fill:none;stroke:#181ea9;stroke-miterlimit:10;stroke-width:0.6000000238418579px"/><line x1="222.26" y1="359.92" x2="330.59" y2="359.92" style="fill:none;stroke:#181ea9;stroke-miterlimit:10;stroke-width:0.6000000238418579px"/><line x1="105.14" y1="359.92" x2="213.46" y2="359.92" style="fill:none;stroke:#181ea9;stroke-miterlimit:10;stroke-width:0.6000000238418579px"/><line x1="540.9" y1="479.46" x2="628.49" y2="479.46" style="fill:none;stroke:#181ea9;stroke-miterlimit:10;stroke-width:0.6000000238418579px"/><line x1="445.83" y1="479.46" x2="532.11" y2="479.46" style="fill:none;stroke:#181ea9;stroke-miterlimit:10;stroke-width:0.6000000238418579px"/><line x1="350.08" y1="479.46" x2="437.02" y2="479.46" style="fill:none;stroke:#181ea9;stroke-miterlimit:10;stroke-width:0.6000000238418579px"/><line x1="255.02" y1="479.46" x2="341.33" y2="479.46" style="fill:none;stroke:#181ea9;stroke-miterlimit:10;stroke-width:0.6000000238418579px"/><line x1="159.28" y1="479.51" x2="246.23" y2="479.4" style="fill:none;stroke:#181ea9;stroke-miterlimit:10;stroke-width:0.6000000238418579px"/><line x1="573.67" y1="240.38" x2="682.62" y2="240.38" style="fill:none;stroke:#181ea9;stroke-miterlimit:10;stroke-width:0.6000000238418579px"/><line x1="456.54" y1="240.38" x2="564.86" y2="240.38" style="fill:none;stroke:#181ea9;stroke-miterlimit:10;stroke-width:0.6000000238418579px"/><line x1="339.41" y1="240.38" x2="447.72" y2="240.38" style="fill:none;stroke:#181ea9;stroke-miterlimit:10;stroke-width:0.6000000238418579px"/><line x1="222.26" y1="240.38" x2="330.59" y2="240.38" style="fill:none;stroke:#181ea9;stroke-miterlimit:10;stroke-width:0.6000000238418579px"/><line x1="105.14" y1="240.38" x2="213.46" y2="240.38" style="fill:none;stroke:#181ea9;stroke-miterlimit:10;stroke-width:0.6000000238418579px"/><line x1="541.56" y1="120.85" x2="628.46" y2="120.85" style="fill:none;stroke:#181ea9;stroke-miterlimit:10;stroke-width:0.6000000238418579px"/><line x1="445.84" y1="120.85" x2="532.74" y2="120.85" style="fill:none;stroke:#181ea9;stroke-miterlimit:10;stroke-width:0.6000000238418579px"/><line x1="350.11" y1="120.85" x2="437.02" y2="120.85" style="fill:none;stroke:#181ea9;stroke-miterlimit:10;stroke-width:0.6000000238418579px"/><line x1="254.39" y1="120.85" x2="341.3" y2="120.85" style="fill:none;stroke:#181ea9;stroke-miterlimit:10;stroke-width:0.6000000238418579px"/><line x1="158.67" y1="120.85" x2="245.58" y2="120.85" style="fill:none;stroke:#181ea9;stroke-miterlimit:10;stroke-width:0.6000000238418579px"/><path d="M232,61.79a19.83,19.83,0,1,1-3.44-11.16A19.84,19.84,0,0,1,232,61.79Z" style="fill:none;stroke:#181ea9;stroke-miterlimit:10;stroke-width:0.6000000238418579px"/><path d="M313.59,61.79a28.36,28.36,0,1,0-28.34,28.34A28.36,28.36,0,0,0,313.59,61.79Z" style="fill:none;stroke:#181ea9;stroke-miterlimit:10;stroke-width:0.6000000238418579px"/><path d="M602.64,61.79A28.36,28.36,0,1,0,574.3,90.13,28.24,28.24,0,0,0,602.64,61.79Z" style="fill:none;stroke:#181ea9;stroke-miterlimit:10;stroke-width:0.6000000238418579px"/><path d="M376.88,61.79A19.83,19.83,0,0,0,357,42a19.84,19.84,0,1,0,0,39.67,19.82,19.82,0,0,0,19.84-19.84Z" style="fill:none;stroke:#181ea9;stroke-miterlimit:10;stroke-width:0.6000000238418579px"/><circle cx="501.88" cy="61.79" r="19.84" style="fill:none;stroke:#181ea9;stroke-miterlimit:10;stroke-width:0.6000000238418579px"/><circle cx="430.09" cy="61.79" r="28.34" style="fill:none;stroke:#181ea9;stroke-miterlimit:10;stroke-width:0.6000000238418579px"/><circle cx="229.2" cy="180.19" r="24.25" style="fill:none;stroke:#181ea9;stroke-miterlimit:10;stroke-width:0.6000000238418579px"/><circle cx="338.78" cy="180.19" r="34.64" style="fill:none;stroke:#181ea9;stroke-miterlimit:10;stroke-width:0.6000000238418579px"/><path d="M154.26,180.19a34.66,34.66,0,1,0-34.63,34.63A34.64,34.64,0,0,0,154.26,180.19Z" style="fill:none;stroke:#181ea9;stroke-miterlimit:10;stroke-width:0.6000000238418579px"/><circle cx="448.35" cy="180.19" r="24.25" style="fill:none;stroke:#181ea9;stroke-miterlimit:10;stroke-width:0.6000000238418579px"/><path d="M691.75,180.19a24.25,24.25,0,1,1-24.24-24.25A24.24,24.24,0,0,1,691.75,180.19Z" style="fill:none;stroke:#181ea9;stroke-miterlimit:10;stroke-width:0.6000000238418579px"/><circle cx="557.93" cy="180.19" r="34.64" style="fill:none;stroke:#181ea9;stroke-miterlimit:10;stroke-width:0.6000000238418579px"/><circle cx="214.09" cy="299.84" r="37.78" style="fill:none;stroke:#181ea9;stroke-miterlimit:10;stroke-width:0.6000000238418579px"/><circle cx="333.74" cy="299.84" r="26.45" style="fill:none;stroke:#181ea9;stroke-miterlimit:10;stroke-width:0.6000000238418579px"/><circle cx="453.39" cy="299.84" r="37.78" style="fill:none;stroke:#181ea9;stroke-miterlimit:10;stroke-width:0.6000000238418579px"/><circle cx="573.04" cy="299.84" r="26.45" style="fill:none;stroke:#181ea9;stroke-miterlimit:10;stroke-width:0.6000000238418579px"/><path d="M730.48,300.47a37.79,37.79,0,0,0-37.78-37.79c-.76,0-1.52,0-2.27.07a37.79,37.79,0,0,0-.12,75.43c.79.05,1.58.07,2.39.07A37.78,37.78,0,0,0,730.48,300.47Z" style="fill:none;stroke:#181ea9;stroke-miterlimit:10;stroke-width:0.6000000238418579px"/><path d="M376.25,538.51a19.83,19.83,0,0,0-19.84-19.83A20.56,20.56,0,0,0,353,519a19.85,19.85,0,1,0,23.28,19.54Z" style="fill:none;stroke:#181ea9;stroke-miterlimit:10;stroke-width:0.6000000238418579px"/><path d="M457.8,538.51a28.32,28.32,0,1,1-21.89-27.6A28.34,28.34,0,0,1,457.8,538.51Z" style="fill:none;stroke:#181ea9;stroke-miterlimit:10;stroke-width:0.6000000238418579px"/><rect x="309.86" y="402.08" width="57.74" height="36.09" transform="translate(-81.39 758.85) rotate(-90)" style="fill:none;stroke:#181ea9;stroke-miterlimit:10;stroke-width:0.6000000238418579px"/><line x1="320.77" y1="399.54" x2="356.87" y2="399.54" style="fill:none;stroke:#181ea9;stroke-miterlimit:10;stroke-width:0.6000000238418579px"/><line x1="320.77" y1="407.48" x2="356.87" y2="407.48" style="fill:none;stroke:#181ea9;stroke-miterlimit:10;stroke-width:0.6000000238418579px"/><line x1="320.77" y1="415.78" x2="356.87" y2="415.78" style="fill:none;stroke:#181ea9;stroke-miterlimit:10;stroke-width:0.6000000238418579px"/><rect x="529.01" y="402.08" width="57.74" height="36.09" transform="translate(137.76 978.01) rotate(-90)" style="fill:none;stroke:#181ea9;stroke-miterlimit:10;stroke-width:0.6000000238418579px"/><line x1="539.92" y1="399.54" x2="576.02" y2="399.54" style="fill:none;stroke:#181ea9;stroke-miterlimit:10;stroke-width:0.6000000238418579px"/><line x1="539.92" y1="407.48" x2="576.02" y2="407.48" style="fill:none;stroke:#181ea9;stroke-miterlimit:10;stroke-width:0.6000000238418579px"/><line x1="539.92" y1="415.78" x2="576.02" y2="415.78" style="fill:none;stroke:#181ea9;stroke-miterlimit:10;stroke-width:0.6000000238418579px"/><path d="M521.09,538.51a19.83,19.83,0,1,1-7.78-15.75A19.84,19.84,0,0,1,521.09,538.51Z" style="fill:none;stroke:#181ea9;stroke-miterlimit:10;stroke-width:0.6000000238418579px"/><path d="M232.67,538.51a19.84,19.84,0,1,0-19.84,19.84A19.77,19.77,0,0,0,232.67,538.51Z" style="fill:none;stroke:#181ea9;stroke-miterlimit:10;stroke-width:0.6000000238418579px"/><path d="M602.64,538.51a28.34,28.34,0,1,1-28.34-28.34A28.34,28.34,0,0,1,602.64,538.51Z" style="fill:none;stroke:#181ea9;stroke-miterlimit:10;stroke-width:0.6000000238418579px"/><circle cx="229.2" cy="420.12" r="24.25" style="fill:none;stroke:#181ea9;stroke-miterlimit:10;stroke-width:0.6000000238418579px"/><circle cx="338.78" cy="420.12" r="34.64" style="fill:none;stroke:#181ea9;stroke-miterlimit:10;stroke-width:0.6000000238418579px"/><path d="M154.26,420.12a34.64,34.64,0,1,1-34.63-34.64A34.62,34.62,0,0,1,154.26,420.12Z" style="fill:none;stroke:#181ea9;stroke-miterlimit:10;stroke-width:0.6000000238418579px"/><rect x="421.9" y="280.2" width="62.99" height="39.37" transform="translate(906.78 599.78) rotate(180)" style="fill:none;stroke:#181ea9;stroke-miterlimit:10;stroke-width:0.6000000238418579px"/><rect x="182.59" y="280.2" width="62.99" height="39.37" transform="translate(428.18 599.78) rotate(180)" style="fill:none;stroke:#181ea9;stroke-miterlimit:10;stroke-width:0.6000000238418579px"/><rect x="661.15" y="280.16" width="62.99" height="39.37" transform="translate(392.81 992.49) rotate(-90)" style="fill:none;stroke:#181ea9;stroke-miterlimit:10;stroke-width:0.6000000238418579px"/><line x1="673.05" y1="277.39" x2="712.43" y2="277.39" style="fill:none;stroke:#181ea9;stroke-miterlimit:10;stroke-width:0.6000000238418579px"/><line x1="673.05" y1="286.05" x2="712.43" y2="286.05" style="fill:none;stroke:#181ea9;stroke-miterlimit:10;stroke-width:0.6000000238418579px"/><line x1="673.05" y1="295.11" x2="712.43" y2="295.11" style="fill:none;stroke:#181ea9;stroke-miterlimit:10;stroke-width:0.6000000238418579px"/><rect x="90.76" y="402.03" width="57.74" height="36.09" style="fill:none;stroke:#181ea9;stroke-miterlimit:10;stroke-width:0.6000000238418579px"/><circle cx="448.35" cy="420.12" r="24.25" style="fill:none;stroke:#181ea9;stroke-miterlimit:10;stroke-width:0.6000000238418579px"/><path d="M691.75,420.12a24.24,24.24,0,1,0-24.24,24.25A24.25,24.25,0,0,0,691.75,420.12Z" style="fill:none;stroke:#181ea9;stroke-miterlimit:10;stroke-width:0.6000000238418579px"/><circle cx="557.93" cy="420.12" r="34.64" style="fill:none;stroke:#181ea9;stroke-miterlimit:10;stroke-width:0.6000000238418579px"/><circle cx="249.98" cy="120.99" r="4.41" style="fill:none;stroke:#181ea9;stroke-miterlimit:10;stroke-width:0.6000000238418579px"/><circle cx="345.71" cy="120.99" r="4.41" style="fill:none;stroke:#181ea9;stroke-miterlimit:10;stroke-width:0.6000000238418579px"/><circle cx="441.43" cy="120.99" r="4.41" style="fill:none;stroke:#181ea9;stroke-miterlimit:10;stroke-width:0.6000000238418579px"/><circle cx="537.15" cy="120.99" r="4.41" style="fill:none;stroke:#181ea9;stroke-miterlimit:10;stroke-width:0.6000000238418579px"/><circle cx="217.87" cy="240.64" r="4.41" style="fill:none;stroke:#181ea9;stroke-miterlimit:10;stroke-width:0.6000000238418579px"/><circle cx="335" cy="240.64" r="4.41" style="fill:none;stroke:#181ea9;stroke-miterlimit:10;stroke-width:0.6000000238418579px"/><circle cx="452.13" cy="240.64" r="4.41" style="fill:none;stroke:#181ea9;stroke-miterlimit:10;stroke-width:0.6000000238418579px"/><circle cx="569.27" cy="240.64" r="4.41" style="fill:none;stroke:#181ea9;stroke-miterlimit:10;stroke-width:0.6000000238418579px"/><circle cx="632.87" cy="120.99" r="4.41" style="fill:none;stroke:#181ea9;stroke-miterlimit:10;stroke-width:0.6000000238418579px"/><path d="M691.44,240.64a4.42,4.42,0,0,0-4.41-4.41,4.26,4.26,0,0,0-1.08.14,4.41,4.41,0,0,0,1.08,8.68,4.62,4.62,0,0,0,.65-.05A4.41,4.41,0,0,0,691.44,240.64Z" style="fill:none;stroke:#181ea9;stroke-miterlimit:10;stroke-width:0.6000000238418579px"/><circle cx="536.52" cy="479.95" r="4.41" style="fill:none;stroke:#181ea9;stroke-miterlimit:10;stroke-width:0.6000000238418579px"/><path d="M437,480a4.4,4.4,0,0,0,3.52,4.31,4.33,4.33,0,0,0,.89.09A4.41,4.41,0,1,0,437,480Z" style="fill:none;stroke:#181ea9;stroke-miterlimit:10;stroke-width:0.6000000238418579px"/><path d="M341.3,480a4.4,4.4,0,0,0,4.41,4.4,3.86,3.86,0,0,0,.84-.08A4.41,4.41,0,1,0,341.3,480Z" style="fill:none;stroke:#181ea9;stroke-miterlimit:10;stroke-width:0.6000000238418579px"/><circle cx="250.61" cy="479.95" r="4.41" style="fill:none;stroke:#181ea9;stroke-miterlimit:10;stroke-width:0.6000000238418579px"/><circle cx="569.27" cy="360.29" r="4.41" style="fill:none;stroke:#181ea9;stroke-miterlimit:10;stroke-width:0.6000000238418579px"/><circle cx="452.13" cy="360.29" r="4.41" style="fill:none;stroke:#181ea9;stroke-miterlimit:10;stroke-width:0.6000000238418579px"/><circle cx="335" cy="360.29" r="4.41" style="fill:none;stroke:#181ea9;stroke-miterlimit:10;stroke-width:0.6000000238418579px"/><circle cx="217.87" cy="360.29" r="4.41" style="fill:none;stroke:#181ea9;stroke-miterlimit:10;stroke-width:0.6000000238418579px"/><path d="M628.46,480a4.41,4.41,0,0,0,4.41,4.4,4.41,4.41,0,1,0-4.41-4.4Z" style="fill:none;stroke:#181ea9;stroke-miterlimit:10;stroke-width:0.6000000238418579px"/><path d="M682,360.29a4.4,4.4,0,0,0,3.72,4.36,5.21,5.21,0,0,0,.69.05,4.41,4.41,0,0,0,1.08-8.68,4.26,4.26,0,0,0-1.08-.13A4.4,4.4,0,0,0,682,360.29Z" style="fill:none;stroke:#181ea9;stroke-miterlimit:10;stroke-width:0.6000000238418579px"/><path d="M149.85,121a4.41,4.41,0,1,1,4.41,4.41A4.42,4.42,0,0,1,149.85,121Z" style="fill:none;stroke:#181ea9;stroke-miterlimit:10;stroke-width:0.6000000238418579px"/><path d="M96.33,240.64a4.41,4.41,0,0,1,4.4-4.41,4.6,4.6,0,0,1,.84.08,4.41,4.41,0,0,1-.84,8.74,4.24,4.24,0,0,1-.88-.09A4.41,4.41,0,0,1,96.33,240.64Z" style="fill:none;stroke:#181ea9;stroke-miterlimit:10;stroke-width:0.6000000238418579px"/><path d="M159.3,480a4.4,4.4,0,0,1-1.66,3.44l-.08.07a4.41,4.41,0,1,1-5.23-7.1,4.41,4.41,0,0,1,7,3.59Z" style="fill:none;stroke:#181ea9;stroke-miterlimit:10;stroke-width:0.6000000238418579px"/><path d="M105.14,360.29A4.41,4.41,0,1,1,99.85,356a4.24,4.24,0,0,1,.88-.09A4.4,4.4,0,0,1,105.14,360.29Z" style="fill:none;stroke:#181ea9;stroke-miterlimit:10;stroke-width:0.6000000238418579px"/><path d="M235.82,156.86q5.44-16.65,12.09-32" style="fill:none;stroke:#181ea9;stroke-miterlimit:10;stroke-width:0.6000000238418579px"/><path d="M218.12,236.25q2.15-16.62,5.38-32.5" style="fill:none;stroke:#181ea9;stroke-miterlimit:10;stroke-width:0.6000000238418579px"/><path d="M215.48,262.08q.66-8.62,1.59-17.1" style="fill:none;stroke:#181ea9;stroke-miterlimit:10;stroke-width:0.6000000238418579px"/><path d="M217.28,355.93q-1-9.06-1.75-18.31" style="fill:none;stroke:#181ea9;stroke-miterlimit:10;stroke-width:0.6000000238418579px"/><path d="M223.75,396.5q-3.19-15.54-5.38-31.8" style="fill:none;stroke:#181ea9;stroke-miterlimit:10;stroke-width:0.6000000238418579px"/><path d="M248.7,476q-6.85-15.59-12.5-32.64" style="fill:none;stroke:#181ea9;stroke-miterlimit:10;stroke-width:0.6000000238418579px"/><path d="M547.54,453.17q-4.24,11.76-9.11,22.81" style="fill:none;stroke:#181ea9;stroke-miterlimit:10;stroke-width:0.6000000238418579px"/><path d="M568.76,364.7q-1.46,10.95-3.4,21.59" style="fill:none;stroke:#181ea9;stroke-miterlimit:10;stroke-width:0.6000000238418579px"/><path d="M572.33,326.28q-.8,15-2.48,29.65" style="fill:none;stroke:#181ea9;stroke-miterlimit:10;stroke-width:0.6000000238418579px"/><path d="M570.07,245.05q1.54,14,2.3,28.35" style="fill:none;stroke:#181ea9;stroke-miterlimit:10;stroke-width:0.6000000238418579px"/><path d="M565.58,214q2,11,3.43,22.26" style="fill:none;stroke:#181ea9;stroke-miterlimit:10;stroke-width:0.6000000238418579px"/><path d="M539.22,124.88q4.65,10.73,8.72,22.13" style="fill:none;stroke:#181ea9;stroke-miterlimit:10;stroke-width:0.6000000238418579px"/><path d="M342.34,145.73q1.28-10.46,2.7-20.33" style="fill:none;stroke:#181ea9;stroke-miterlimit:10;stroke-width:0.6000000238418579px"/><path d="M335.11,236.23q.48-10.9,1.11-21.5" style="fill:none;stroke:#181ea9;stroke-miterlimit:10;stroke-width:0.6000000238418579px"/><path d="M334,273.39q.25-14.37.78-28.34" style="fill:none;stroke:#181ea9;stroke-miterlimit:10;stroke-width:0.6000000238418579px"/><path d="M334.78,356q-.55-14.61-.82-29.68" style="fill:none;stroke:#181ea9;stroke-miterlimit:10;stroke-width:0.6000000238418579px"/><path d="M336.22,385.58q-.62-10.29-1.08-20.88" style="fill:none;stroke:#181ea9;stroke-miterlimit:10;stroke-width:0.6000000238418579px"/><path d="M345.14,475.71q-1.5-10.24-2.81-21.13" style="fill:none;stroke:#181ea9;stroke-miterlimit:10;stroke-width:0.6000000238418579px"/><path d="M446,444.25c-1.21,10.92-2.54,21.43-4,31.46" style="fill:none;stroke:#181ea9;stroke-miterlimit:10;stroke-width:0.6000000238418579px"/><path d="M452,364.7q-.71,15.92-1.74,31.18" style="fill:none;stroke:#181ea9;stroke-miterlimit:10;stroke-width:0.6000000238418579px"/><path d="M452.93,337.62q-.24,9.22-.57,18.27" style="fill:none;stroke:#181ea9;stroke-miterlimit:10;stroke-width:0.6000000238418579px"/><path d="M452.37,245.05q.31,8.41.54,17" style="fill:none;stroke:#181ea9;stroke-miterlimit:10;stroke-width:0.6000000238418579px"/><path d="M450.25,204.43q1,15.54,1.77,31.81" style="fill:none;stroke:#181ea9;stroke-miterlimit:10;stroke-width:0.6000000238418579px"/><path d="M442.09,125.35c1.41,9.8,2.72,20.06,3.89,30.71" style="fill:none;stroke:#181ea9;stroke-miterlimit:10;stroke-width:0.6000000238418579px"/><rect x="208.9" y="407.45" width="40.54" height="25.34" transform="translate(-190.95 649.29) rotate(-90)" style="fill:none;stroke:#181ea9;stroke-miterlimit:10;stroke-width:0.6000000238418579px"/><line x1="216.56" y1="405.67" x2="241.9" y2="405.67" style="fill:none;stroke:#181ea9;stroke-miterlimit:10;stroke-width:0.6000000238418579px"/><line x1="216.56" y1="411.25" x2="241.9" y2="411.25" style="fill:none;stroke:#181ea9;stroke-miterlimit:10;stroke-width:0.6000000238418579px"/><rect x="428.08" y="407.42" width="40.54" height="25.34" style="fill:none;stroke:#181ea9;stroke-miterlimit:10;stroke-width:0.6000000238418579px"/><rect x="647.2" y="407.45" width="40.54" height="25.34" transform="translate(247.35 1087.59) rotate(-90)" style="fill:none;stroke:#181ea9;stroke-miterlimit:10;stroke-width:0.6000000238418579px"/><line x1="654.86" y1="405.67" x2="680.21" y2="405.67" style="fill:none;stroke:#181ea9;stroke-miterlimit:10;stroke-width:0.6000000238418579px"/><line x1="654.86" y1="411.25" x2="680.21" y2="411.25" style="fill:none;stroke:#181ea9;stroke-miterlimit:10;stroke-width:0.6000000238418579px"/><rect x="309.91" y="162.1" width="57.74" height="36.09" style="fill:none;stroke:#181ea9;stroke-miterlimit:10;stroke-width:0.6000000238418579px"/><rect x="529.01" y="162.14" width="57.74" height="36.09" transform="translate(377.7 738.07) rotate(-90)" style="fill:none;stroke:#181ea9;stroke-miterlimit:10;stroke-width:0.6000000238418579px"/><line x1="539.92" y1="159.61" x2="576.02" y2="159.61" style="fill:none;stroke:#181ea9;stroke-miterlimit:10;stroke-width:0.6000000238418579px"/><line x1="539.92" y1="167.55" x2="576.02" y2="167.55" style="fill:none;stroke:#181ea9;stroke-miterlimit:10;stroke-width:0.6000000238418579px"/><line x1="539.92" y1="175.85" x2="576.02" y2="175.85" style="fill:none;stroke:#181ea9;stroke-miterlimit:10;stroke-width:0.6000000238418579px"/><rect x="90.71" y="162.14" width="57.74" height="36.09" transform="translate(-60.61 299.77) rotate(-90)" style="fill:none;stroke:#181ea9;stroke-miterlimit:10;stroke-width:0.6000000238418579px"/><line x1="101.62" y1="159.61" x2="137.71" y2="159.61" style="fill:none;stroke:#181ea9;stroke-miterlimit:10;stroke-width:0.6000000238418579px"/><line x1="101.62" y1="167.55" x2="137.71" y2="167.55" style="fill:none;stroke:#181ea9;stroke-miterlimit:10;stroke-width:0.6000000238418579px"/><line x1="101.62" y1="175.85" x2="137.71" y2="175.85" style="fill:none;stroke:#181ea9;stroke-miterlimit:10;stroke-width:0.6000000238418579px"/><rect x="208.93" y="167.49" width="40.54" height="25.34" style="fill:none;stroke:#181ea9;stroke-miterlimit:10;stroke-width:0.6000000238418579px"/><rect x="311.59" y="286.02" width="44.23" height="27.64" transform="translate(33.87 633.54) rotate(-90)" style="fill:none;stroke:#181ea9;stroke-miterlimit:10;stroke-width:0.6000000238418579px"/><line x1="319.95" y1="284.07" x2="347.59" y2="284.07" style="fill:none;stroke:#181ea9;stroke-miterlimit:10;stroke-width:0.6000000238418579px"/><line x1="319.95" y1="290.16" x2="347.59" y2="290.16" style="fill:none;stroke:#181ea9;stroke-miterlimit:10;stroke-width:0.6000000238418579px"/><rect x="72.92" y="286.02" width="44.23" height="27.64" transform="translate(-204.81 394.87) rotate(-90)" style="fill:none;stroke:#181ea9;stroke-miterlimit:10;stroke-width:0.6000000238418579px"/><line x1="81.27" y1="284.07" x2="108.92" y2="284.07" style="fill:none;stroke:#181ea9;stroke-miterlimit:10;stroke-width:0.6000000238418579px"/><line x1="81.27" y1="290.16" x2="108.92" y2="290.16" style="fill:none;stroke:#181ea9;stroke-miterlimit:10;stroke-width:0.6000000238418579px"/><rect x="550.93" y="286.05" width="44.23" height="27.64" transform="translate(1146.09 599.75) rotate(180)" style="fill:none;stroke:#181ea9;stroke-miterlimit:10;stroke-width:0.6000000238418579px"/><rect x="428.05" y="167.52" width="40.54" height="25.34" transform="translate(268.14 628.51) rotate(-90)" style="fill:none;stroke:#181ea9;stroke-miterlimit:10;stroke-width:0.6000000238418579px"/><line x1="435.71" y1="165.74" x2="461.05" y2="165.74" style="fill:none;stroke:#181ea9;stroke-miterlimit:10;stroke-width:0.6000000238418579px"/><line x1="435.71" y1="171.31" x2="461.05" y2="171.31" style="fill:none;stroke:#181ea9;stroke-miterlimit:10;stroke-width:0.6000000238418579px"/><rect x="647.23" y="167.49" width="40.54" height="25.34" style="fill:none;stroke:#181ea9;stroke-miterlimit:10;stroke-width:0.6000000238418579px"/><path d="M197.64,525.75a300.87,300.87,0,0,1-40.08-42.29" style="fill:none;stroke:#181ea9;stroke-miterlimit:10;stroke-width:0.6000000238418579px"/><path d="M550.8,554.34a299.22,299.22,0,0,1-321.6-4.63" style="fill:none;stroke:#181ea9;stroke-miterlimit:10;stroke-width:0.6000000238418579px"/><path d="M228.6,50.63A299.2,299.2,0,0,1,551,45.71" style="fill:none;stroke:#181ea9;stroke-miterlimit:10;stroke-width:0.6000000238418579px"/><path d="M268.81,515A301.13,301.13,0,0,1,252.1,484.1" style="fill:none;stroke:#181ea9;stroke-miterlimit:10;stroke-width:0.6000000238418579px"/><path d="M488.56,553.75C461,582.43,428.45,599,393.56,599c-32.62,0-63.2-14.49-89.56-39.81" style="fill:none;stroke:#181ea9;stroke-miterlimit:10;stroke-width:0.6000000238418579px"/><path d="M535,484.09a294.34,294.34,0,0,1-21.72,38.67" style="fill:none;stroke:#181ea9;stroke-miterlimit:10;stroke-width:0.6000000238418579px"/><path d="M513.52,77.86A294,294,0,0,1,535.37,117" style="fill:none;stroke:#181ea9;stroke-miterlimit:10;stroke-width:0.6000000238418579px"/><path d="M251.75,117A303.57,303.57,0,0,1,269,85" style="fill:none;stroke:#181ea9;stroke-miterlimit:10;stroke-width:0.6000000238418579px"/></svg>