<svg id="Layer_1" data-name="Layer 1" xmlns="http://www.w3.org/2000/svg" viewBox="0 0 800 600"><polygon points="92.75 309.02 87.83 317.22 82.92 309.02 92.75 309.02" style="fill:none;stroke:#181ea9;stroke-miterlimit:10;stroke-width:0.6000000238418579px"/><line x1="87.83" y1="238.63" x2="87.83" y2="317.47" style="fill:none;stroke:#181ea9;stroke-miterlimit:10;stroke-width:0.6000000238418579px"/><polygon points="288.75 262.25 285.24 268.11 281.72 262.25 288.75 262.25" style="fill:none;stroke:#181ea9;stroke-miterlimit:10;stroke-width:0.6000000238418579px"/><line x1="285.24" y1="199.76" x2="285.24" y2="268.43" style="fill:none;stroke:#181ea9;stroke-miterlimit:10;stroke-width:0.6000000238418579px"/><polygon points="684.3 269.28 680.79 275.14 677.27 269.28 684.3 269.28" style="fill:none;stroke:#181ea9;stroke-miterlimit:10;stroke-width:0.6000000238418579px"/><line x1="680.79" y1="199.76" x2="680.79" y2="275.14" style="fill:none;stroke:#181ea9;stroke-miterlimit:10;stroke-width:0.6000000238418579px"/><polygon points="487.56 308.79 482.64 316.99 477.72 308.79 487.56 308.79" style="fill:none;stroke:#181ea9;stroke-miterlimit:10;stroke-width:0.6000000238418579px"/><line x1="482.64" y1="238.4" x2="482.64" y2="317.24" style="fill:none;stroke:#181ea9;stroke-miterlimit:10;stroke-width:0.6000000238418579px"/><polygon points="92.75 10.82 87.83 2.62 82.92 10.82 92.75 10.82" style="fill:none;stroke:#181ea9;stroke-miterlimit:10;stroke-width:0.6000000238418579px"/><line x1="87.83" y1="70.18" x2="87.83" y2="2.38" style="fill:none;stroke:#181ea9;stroke-miterlimit:10;stroke-width:0.6000000238418579px"/><polygon points="288.75 8.37 285.24 2.51 281.72 8.37 288.75 8.37" style="fill:none;stroke:#181ea9;stroke-miterlimit:10;stroke-width:0.6000000238418579px"/><line x1="285.24" y1="109.05" x2="285.24" y2="2.19" style="fill:none;stroke:#181ea9;stroke-miterlimit:10;stroke-width:0.6000000238418579px"/><polygon points="684.3 8.37 680.79 2.51 677.27 8.37 684.3 8.37" style="fill:none;stroke:#181ea9;stroke-miterlimit:10;stroke-width:0.6000000238418579px"/><line x1="680.79" y1="109.05" x2="680.79" y2="2.51" style="fill:none;stroke:#181ea9;stroke-miterlimit:10;stroke-width:0.6000000238418579px"/><polygon points="487.56 11.05 482.64 2.85 477.72 11.05 487.56 11.05" style="fill:none;stroke:#181ea9;stroke-miterlimit:10;stroke-width:0.6000000238418579px"/><line x1="482.64" y1="70.41" x2="482.64" y2="2.6" style="fill:none;stroke:#181ea9;stroke-miterlimit:10;stroke-width:0.6000000238418579px"/><polygon points="685.71 582.15 680.79 597.38 675.87 582.15 685.71 582.15" style="fill:none;stroke:#181ea9;stroke-miterlimit:10;stroke-width:0.6000000238418579px"/><line x1="680.79" y1="522.78" x2="680.79" y2="597.62" style="fill:none;stroke:#181ea9;stroke-miterlimit:10;stroke-width:0.6000000238418579px"/><polygon points="486.15 591.63 482.64 597.49 479.12 591.63 486.15 591.63" style="fill:none;stroke:#181ea9;stroke-miterlimit:10;stroke-width:0.6000000238418579px"/><line x1="482.64" y1="483.92" x2="482.64" y2="597.81" style="fill:none;stroke:#181ea9;stroke-miterlimit:10;stroke-width:0.6000000238418579px"/><polygon points="91.35 591.63 87.83 597.49 84.32 591.63 91.35 591.63" style="fill:none;stroke:#181ea9;stroke-miterlimit:10;stroke-width:0.6000000238418579px"/><line x1="87.83" y1="483.92" x2="87.83" y2="597.49" style="fill:none;stroke:#181ea9;stroke-miterlimit:10;stroke-width:0.6000000238418579px"/><polygon points="290.15 581.92 285.24 597.15 280.32 581.92 290.15 581.92" style="fill:none;stroke:#181ea9;stroke-miterlimit:10;stroke-width:0.6000000238418579px"/><line x1="285.24" y1="522.56" x2="285.24" y2="597.4" style="fill:none;stroke:#181ea9;stroke-miterlimit:10;stroke-width:0.6000000238418579px"/><polygon points="685.71 283.95 680.79 275.75 675.87 283.95 685.71 283.95" style="fill:none;stroke:#181ea9;stroke-miterlimit:10;stroke-width:0.6000000238418579px"/><line x1="680.79" y1="354.34" x2="680.79" y2="275.5" style="fill:none;stroke:#181ea9;stroke-miterlimit:10;stroke-width:0.6000000238418579px"/><polygon points="486.15 323.69 482.64 317.83 479.12 323.69 486.15 323.69" style="fill:none;stroke:#181ea9;stroke-miterlimit:10;stroke-width:0.6000000238418579px"/><line x1="482.64" y1="392.86" x2="482.64" y2="317.51" style="fill:none;stroke:#181ea9;stroke-miterlimit:10;stroke-width:0.6000000238418579px"/><polygon points="91.35 323.69 87.83 317.83 84.32 323.69 91.35 323.69" style="fill:none;stroke:#181ea9;stroke-miterlimit:10;stroke-width:0.6000000238418579px"/><line x1="87.83" y1="392.86" x2="87.83" y2="317.83" style="fill:none;stroke:#181ea9;stroke-miterlimit:10;stroke-width:0.6000000238418579px"/><polygon points="290.15 277.14 285.24 268.95 280.32 277.14 290.15 277.14" style="fill:none;stroke:#181ea9;stroke-miterlimit:10;stroke-width:0.6000000238418579px"/><line x1="285.24" y1="354.57" x2="285.24" y2="268.7" style="fill:none;stroke:#181ea9;stroke-miterlimit:10;stroke-width:0.6000000238418579px"/><path d="M4,128.42,36.23,85.79,88.38,69.67l52.16,16.12L172.77,128v52.15l-32.23,42.19L88.38,238.44,36.23,222.32,4,180.57Z" style="fill:none;stroke:#181ea9;stroke-miterlimit:10;stroke-width:0.6000000238418579px"/><rect x="36.23" y="127.98" width="104.3" height="52.15" style="fill:none;stroke:#181ea9;stroke-miterlimit:10;stroke-width:0.6000000238418579px"/><line x1="88.96" y1="180.13" x2="88.96" y2="198.07" style="fill:none;stroke:#181ea9;stroke-miterlimit:10;stroke-width:0.6000000238418579px"/><line x1="78.98" y1="198.07" x2="97.79" y2="198.07" style="fill:none;stroke:#181ea9;stroke-miterlimit:10;stroke-width:0.6000000238418579px"/><path d="M597,412.93l32.23-42.63,52.15-16.12,52.15,16.12,32.23,42.19v52.15l-32.23,42.19L681.34,523l-52.15-16.12L597,465.09Z" style="fill:none;stroke:#181ea9;stroke-miterlimit:10;stroke-width:0.6000000238418579px"/><rect x="629.19" y="412.49" width="104.3" height="52.15" style="fill:none;stroke:#181ea9;stroke-miterlimit:10;stroke-width:0.6000000238418579px"/><line x1="681.91" y1="464.64" x2="681.91" y2="482.58" style="fill:none;stroke:#181ea9;stroke-miterlimit:10;stroke-width:0.6000000238418579px"/><line x1="671.93" y1="482.58" x2="690.75" y2="482.58" style="fill:none;stroke:#181ea9;stroke-miterlimit:10;stroke-width:0.6000000238418579px"/><path d="M436.93,424.68l17.46-23.1,28.25-8.72,28.25,8.72,17.46,22.86v28.25l-17.46,22.85-28.25,8.73-28.25-8.73-17.46-22.61Z" style="fill:none;stroke:#181ea9;stroke-miterlimit:10;stroke-width:0.6000000238418579px"/><rect x="454.39" y="424.44" width="56.5" height="28.25" style="fill:none;stroke:#181ea9;stroke-miterlimit:10;stroke-width:0.6000000238418579px"/><line x1="482.95" y1="452.69" x2="482.95" y2="462.4" style="fill:none;stroke:#181ea9;stroke-miterlimit:10;stroke-width:0.6000000238418579px"/><line x1="477.54" y1="462.4" x2="487.73" y2="462.4" style="fill:none;stroke:#181ea9;stroke-miterlimit:10;stroke-width:0.6000000238418579px"/><path d="M239.53,140.17,257,117.07l28.25-8.72,28.25,8.72,17.45,22.86v28.25L313.49,191l-28.25,8.73L257,191l-17.46-22.61Z" style="fill:none;stroke:#181ea9;stroke-miterlimit:10;stroke-width:0.6000000238418579px"/><rect x="256.99" y="139.93" width="56.5" height="28.25" style="fill:none;stroke:#181ea9;stroke-miterlimit:10;stroke-width:0.6000000238418579px"/><line x1="285.55" y1="168.18" x2="285.55" y2="177.89" style="fill:none;stroke:#181ea9;stroke-miterlimit:10;stroke-width:0.6000000238418579px"/><line x1="280.14" y1="177.89" x2="290.33" y2="177.89" style="fill:none;stroke:#181ea9;stroke-miterlimit:10;stroke-width:0.6000000238418579px"/><text transform="translate(61.64 157.75)" style="font-size:5.839747905731201px;fill:#5a6eaa;font-family:AktivGroteskEx-XBold, Aktiv Grotesk Ex;font-weight:700;letter-spacing:0.20000328247966678em">REQUE<tspan x="30.33" y="0" style="letter-spacing:0.1800196769141817em">S</tspan><tspan x="36.04" y="0" style="letter-spacing:0.1699860674252352em">T</tspan><tspan x="41.51" y="0" style="letter-spacing:0.1899696729907203em">O</tspan><tspan x="48.17" y="0">R</tspan></text><text transform="translate(654.59 442.26)" style="font-size:5.839747905731201px;fill:#5a6eaa;font-family:AktivGroteskEx-XBold, Aktiv Grotesk Ex;font-weight:700;letter-spacing:0.20000328247966678em">REQUE<tspan x="30.33" y="0" style="letter-spacing:0.1800196769141817em">S</tspan><tspan x="36.04" y="0" style="letter-spacing:0.1699860674252352em">T</tspan><tspan x="41.51" y="0" style="letter-spacing:0.1899696729907203em">O</tspan><tspan x="48.17" y="0">R</tspan></text><path d="M398.26,129.42l32.23-42.63,52.15-16.12,52.15,16.12L567,129v52.15l-32.23,42.19-52.15,16.12-52.15-16.12-32.23-41.75Z" style="fill:none;stroke:#181ea9;stroke-miterlimit:10;stroke-width:0.6000000238418579px"/><rect x="430.49" y="128.98" width="104.3" height="52.15" style="fill:none;stroke:#181ea9;stroke-miterlimit:10;stroke-width:0.6000000238418579px"/><line x1="483.21" y1="181.13" x2="483.21" y2="199.07" style="fill:none;stroke:#181ea9;stroke-miterlimit:10;stroke-width:0.6000000238418579px"/><line x1="473.23" y1="199.07" x2="492.05" y2="199.07" style="fill:none;stroke:#181ea9;stroke-miterlimit:10;stroke-width:0.6000000238418579px"/><text transform="translate(455.89 158.75)" style="font-size:5.839747905731201px;fill:#5a6eaa;font-family:AktivGroteskEx-XBold, Aktiv Grotesk Ex;font-weight:700;letter-spacing:0.20000328247966678em">REQUE<tspan x="30.33" y="0" style="letter-spacing:0.1800196769141817em">S</tspan><tspan x="36.04" y="0" style="letter-spacing:0.1699860674252352em">T</tspan><tspan x="41.51" y="0" style="letter-spacing:0.1899696729907203em">O</tspan><tspan x="48.17" y="0">R</tspan></text><text transform="translate(468.15 440.57)" style="font-size:3.163194417953491px;fill:#5a6eaa;font-family:AktivGroteskEx-XBold, Aktiv Grotesk Ex;font-weight:700;letter-spacing:0.20005488641745078em">REQUE<tspan x="16.43" y="0" style="letter-spacing:0.17998765244039167em">S</tspan><tspan x="19.52" y="0" style="letter-spacing:0.1701083987901472em">T</tspan><tspan x="22.48" y="0" style="letter-spacing:0.18986690609063614em">O</tspan><tspan x="26.09" y="0">R</tspan></text><path d="M43.25,424.68l17.46-23.1L89,392.86l28.25,8.72,17.46,22.86v28.25l-17.46,22.85L89,484.27l-28.25-8.73L43.25,452.93Z" style="fill:none;stroke:#181ea9;stroke-miterlimit:10;stroke-width:0.6000000238418579px"/><rect x="60.71" y="424.44" width="56.5" height="28.25" style="fill:none;stroke:#181ea9;stroke-miterlimit:10;stroke-width:0.6000000238418579px"/><line x1="89.27" y1="452.69" x2="89.27" y2="462.4" style="fill:none;stroke:#181ea9;stroke-miterlimit:10;stroke-width:0.6000000238418579px"/><line x1="83.86" y1="462.4" x2="94.05" y2="462.4" style="fill:none;stroke:#181ea9;stroke-miterlimit:10;stroke-width:0.6000000238418579px"/><text transform="translate(74.47 440.57)" style="font-size:3.163194417953491px;fill:#5a6eaa;font-family:AktivGroteskEx-XBold, Aktiv Grotesk Ex;font-weight:700;letter-spacing:0.20005488641745078em">REQUE<tspan x="16.43" y="0" style="letter-spacing:0.17998765244039167em">S</tspan><tspan x="19.52" y="0" style="letter-spacing:0.1701083987901472em">T</tspan><tspan x="22.48" y="0" style="letter-spacing:0.18986690609063614em">O</tspan><tspan x="26.09" y="0">R</tspan></text><text transform="translate(270.75 156.06)" style="font-size:3.163194417953491px;fill:#5a6eaa;font-family:AktivGroteskEx-XBold, Aktiv Grotesk Ex;font-weight:700;letter-spacing:0.20005488641745078em">REQUE<tspan x="16.43" y="0" style="letter-spacing:0.17998765244039167em">S</tspan><tspan x="19.52" y="0" style="letter-spacing:0.1701083987901472em">T</tspan><tspan x="22.48" y="0" style="letter-spacing:0.19002126942892122em">O</tspan><tspan x="26.09" y="0" style="letter-spacing:0.1999005230791657em">R</tspan></text><path d="M635.08,140.17l17.46-23.1,28.25-8.72L709,117.07l17.46,22.86v28.25L709,191l-28.25,8.73L652.54,191l-17.46-22.61Z" style="fill:none;stroke:#181ea9;stroke-miterlimit:10;stroke-width:0.6000000238418579px"/><rect x="652.54" y="139.93" width="56.5" height="28.25" style="fill:none;stroke:#181ea9;stroke-miterlimit:10;stroke-width:0.6000000238418579px"/><line x1="681.1" y1="168.18" x2="681.1" y2="177.89" style="fill:none;stroke:#181ea9;stroke-miterlimit:10;stroke-width:0.6000000238418579px"/><line x1="675.69" y1="177.89" x2="685.88" y2="177.89" style="fill:none;stroke:#181ea9;stroke-miterlimit:10;stroke-width:0.6000000238418579px"/><text transform="translate(666.3 156.06)" style="font-size:3.163194417953491px;fill:#5a6eaa;font-family:AktivGroteskEx-XBold, Aktiv Grotesk Ex;font-weight:700;letter-spacing:0.20005488641745078em">REQUE<tspan x="16.43" y="0" style="letter-spacing:0.17998765244039167em">S</tspan><tspan x="19.52" y="0" style="letter-spacing:0.1701083987901472em">T</tspan><tspan x="22.48" y="0" style="letter-spacing:0.19002126942892122em">O</tspan><tspan x="26.09" y="0" style="letter-spacing:0.1999005230791657em">R</tspan></text><polygon points="198.14 158.97 206.34 154.05 198.14 149.13 198.14 158.97" style="fill:none;stroke:#181ea9;stroke-miterlimit:10;stroke-width:0.6000000238418579px"/><line x1="172.77" y1="154.05" x2="206.34" y2="154.05" style="fill:none;stroke:#181ea9;stroke-miterlimit:10;stroke-width:0.6000000238418579px"/><polygon points="212.2 150.54 206.34 154.05 212.2 157.57 212.2 150.54" style="fill:none;stroke:#181ea9;stroke-miterlimit:10;stroke-width:0.6000000238418579px"/><line x1="239.91" y1="154.05" x2="206.34" y2="154.05" style="fill:none;stroke:#181ea9;stroke-miterlimit:10;stroke-width:0.6000000238418579px"/><polygon points="592.29 158.97 600.48 154.05 592.29 149.13 592.29 158.97" style="fill:none;stroke:#181ea9;stroke-miterlimit:10;stroke-width:0.6000000238418579px"/><line x1="566.91" y1="154.05" x2="600.48" y2="154.05" style="fill:none;stroke:#181ea9;stroke-miterlimit:10;stroke-width:0.6000000238418579px"/><polygon points="607.09 150.54 601.23 154.05 607.09 157.57 607.09 150.54" style="fill:none;stroke:#181ea9;stroke-miterlimit:10;stroke-width:0.6000000238418579px"/><line x1="634.8" y1="154.05" x2="601.23" y2="154.05" style="fill:none;stroke:#181ea9;stroke-miterlimit:10;stroke-width:0.6000000238418579px"/><polygon points="358.66 157.57 364.52 154.05 358.66 150.54 358.66 157.57" style="fill:none;stroke:#181ea9;stroke-miterlimit:10;stroke-width:0.6000000238418579px"/><line x1="330.94" y1="154.05" x2="364.52" y2="154.05" style="fill:none;stroke:#181ea9;stroke-miterlimit:10;stroke-width:0.6000000238418579px"/><polygon points="372.72 149.13 364.52 154.05 372.72 158.97 372.72 149.13" style="fill:none;stroke:#181ea9;stroke-miterlimit:10;stroke-width:0.6000000238418579px"/><line x1="397.18" y1="154.05" x2="363.61" y2="154.05" style="fill:none;stroke:#181ea9;stroke-miterlimit:10;stroke-width:0.6000000238418579px"/><polygon points="570.88 433.64 562.68 438.56 570.88 443.48 570.88 433.64" style="fill:none;stroke:#181ea9;stroke-miterlimit:10;stroke-width:0.6000000238418579px"/><line x1="596.25" y1="438.56" x2="562.68" y2="438.56" style="fill:none;stroke:#181ea9;stroke-miterlimit:10;stroke-width:0.6000000238418579px"/><polygon points="791.8 443.48 800 438.56 791.8 433.64 791.8 443.48" style="fill:none;stroke:#181ea9;stroke-miterlimit:10;stroke-width:0.6000000238418579px"/><line x1="766.43" y1="438.56" x2="800" y2="438.56" style="fill:none;stroke:#181ea9;stroke-miterlimit:10;stroke-width:0.6000000238418579px"/><polygon points="556.07 442.08 561.93 438.56 556.07 435.05 556.07 442.08" style="fill:none;stroke:#181ea9;stroke-miterlimit:10;stroke-width:0.6000000238418579px"/><line x1="528.36" y1="438.56" x2="561.93" y2="438.56" style="fill:none;stroke:#181ea9;stroke-miterlimit:10;stroke-width:0.6000000238418579px"/><polygon points="175.99 433.64 167.79 438.56 175.99 443.48 175.99 433.64" style="fill:none;stroke:#181ea9;stroke-miterlimit:10;stroke-width:0.6000000238418579px"/><line x1="201.36" y1="438.56" x2="167.79" y2="438.56" style="fill:none;stroke:#181ea9;stroke-miterlimit:10;stroke-width:0.6000000238418579px"/><polygon points="161.93 442.08 167.79 438.56 161.93 435.05 161.93 442.08" style="fill:none;stroke:#181ea9;stroke-miterlimit:10;stroke-width:0.6000000238418579px"/><line x1="134.22" y1="438.56" x2="167.79" y2="438.56" style="fill:none;stroke:#181ea9;stroke-miterlimit:10;stroke-width:0.6000000238418579px"/><polygon points="409.62 435.05 403.75 438.56 409.62 442.08 409.62 435.05" style="fill:none;stroke:#181ea9;stroke-miterlimit:10;stroke-width:0.6000000238418579px"/><line x1="437.33" y1="438.56" x2="403.75" y2="438.56" style="fill:none;stroke:#181ea9;stroke-miterlimit:10;stroke-width:0.6000000238418579px"/><polygon points="395.56 443.48 403.75 438.56 395.56 433.64 395.56 443.48" style="fill:none;stroke:#181ea9;stroke-miterlimit:10;stroke-width:0.6000000238418579px"/><line x1="370.18" y1="438.56" x2="403.75" y2="438.56" style="fill:none;stroke:#181ea9;stroke-miterlimit:10;stroke-width:0.6000000238418579px"/><polygon points="792.97 157.57 798.83 154.05 792.97 150.54 792.97 157.57" style="fill:none;stroke:#181ea9;stroke-miterlimit:10;stroke-width:0.6000000238418579px"/><line x1="725.83" y1="154.05" x2="798.83" y2="154.05" style="fill:none;stroke:#181ea9;stroke-miterlimit:10;stroke-width:0.6000000238418579px"/><line x1="510.89" y1="401.58" x2="652.54" y2="191.03" style="fill:none;stroke:#181ea9;stroke-miterlimit:10;stroke-width:0.6000000238418579px"/><line x1="535.2" y1="223.04" x2="629.19" y2="370.3" style="fill:none;stroke:#181ea9;stroke-miterlimit:10;stroke-width:0.6000000238418579px"/><line x1="454.39" y1="401.58" x2="313.49" y2="191.03" style="fill:none;stroke:#181ea9;stroke-miterlimit:10;stroke-width:0.6000000238418579px"/><line x1="256.99" y1="191.03" x2="116" y2="401.59" style="fill:none;stroke:#181ea9;stroke-miterlimit:10;stroke-width:0.6000000238418579px"/><line x1="429.8" y1="223.04" x2="337.55" y2="369.57" style="fill:none;stroke:#181ea9;stroke-miterlimit:10;stroke-width:0.6000000238418579px"/><line x1="232.14" y1="369.57" x2="140.54" y2="222.32" style="fill:none;stroke:#181ea9;stroke-miterlimit:10;stroke-width:0.6000000238418579px"/><path d="M201.16,412.06l32.24-42.64,52.15-16.11,52.15,16.11,32.23,42.2v52.15L337.7,506l-52.15,16.12L233.4,506l-32.24-41.75Z" style="fill:none;stroke:#181ea9;stroke-miterlimit:10;stroke-width:0.6000000238418579px"/><polyline points="252.07 477.84 266.95 492.72 304.15 492.72 319.02 477.84 319.02 455.52 304.15 440.65 266.95 440.65 252.07 425.77 252.07 403.45 266.95 388.57 304.15 388.57 319.02 403.45" style="fill:none;stroke:#181ea9;stroke-miterlimit:10;stroke-width:0.6000000238418579px"/><line x1="285.55" y1="353.31" x2="285.55" y2="525.65" style="fill:none;stroke:#181ea9;stroke-miterlimit:10;stroke-width:0.6000000238418579px"/></svg>