<svg width="858" height="418" viewBox="0 0 858 418" fill="none" xmlns="http://www.w3.org/2000/svg">
<g clip-path="url(#clip0_2_5)">
<path d="M242.53 66.401C206.065 66.401 176.377 96.167 176.377 132.779C176.377 169.391 206.042 199.157 242.53 199.157C279.018 199.157 308.683 169.391 308.683 132.779C308.683 96.1901 279.018 66.401 242.53 66.401ZM242.53 177.023C218.212 177.023 198.436 157.179 198.436 132.779C198.436 108.379 218.212 88.5347 242.53 88.5347C266.847 88.5347 286.624 108.379 286.624 132.779C286.624 157.179 266.847 177.023 242.53 177.023ZM352.777 0H374.835V195.826H352.777V0ZM749.648 69.7083V195.803H727.589V91.8189H683.495V195.803H661.436V91.8189H617.342V195.803H595.283V69.7083H749.624H749.648ZM136.294 46.7189L104.416 78.6821C93.6055 70.9573 80.398 66.3779 66.1302 66.3779C29.6655 66.3779 -0.022583 96.1439 -0.022583 132.756C-0.022583 165.575 23.857 192.912 55.0894 198.185V222.192C23.857 227.466 -0.022583 254.803 -0.022583 287.622C-0.022583 324.211 29.6424 354 66.1302 354C102.618 354 132.283 324.234 132.283 287.622C132.283 254.803 108.403 227.466 77.171 222.192V198.185C108.403 192.912 132.283 165.575 132.283 132.756C132.283 118.439 127.719 105.187 120.021 94.3399L151.875 62.3536L136.294 46.7189ZM110.224 287.622C110.224 312.022 90.4477 331.866 66.1302 331.866C41.8127 331.866 22.036 312.022 22.036 287.622C22.036 263.222 41.8127 243.378 66.1302 243.378C90.4477 243.378 110.224 263.222 110.224 287.622ZM66.1302 177C41.8127 177 22.036 157.156 22.036 132.756C22.036 108.356 41.8127 88.5116 66.1302 88.5116C90.4477 88.5116 110.224 108.356 110.224 132.756C110.224 157.156 90.4477 177 66.1302 177ZM486.166 66.401C467.403 66.401 450.416 73.2932 438.291 85.7824C426.513 97.9479 420.013 114.623 420.013 132.756C420.013 150.888 426.329 167.656 437.83 179.683C449.978 192.403 466.689 199.134 486.166 199.134C507.095 199.134 528.808 188.911 540.194 173.693L522.561 160.417C515.255 170.177 500.295 177 486.189 177C463.277 177 446.889 163.586 442.994 142.701H550.129V131.646C550.129 114.045 543.928 97.7397 532.657 85.7593C520.902 73.2701 504.398 66.3779 486.189 66.3779M443.524 120.59C448.272 101.209 464.499 88.5116 486.189 88.5116C507.879 88.5116 522.654 101.255 526.918 120.59H443.524Z" fill="white"/>
</g>
<path d="M352.741 239.951H376.057V415H352.741V397.3C349.323 403.078 343.789 407.879 336.14 411.704C328.49 415.529 320.433 417.441 311.97 417.441C300.902 417.441 290.811 414.674 281.696 409.141C272.582 403.525 265.42 395.876 260.212 386.191C255.085 376.426 252.521 365.684 252.521 353.965C252.521 342.246 255.085 331.545 260.212 321.86C265.42 312.095 272.582 304.445 281.696 298.911C290.811 293.296 300.902 290.488 311.97 290.488C320.515 290.488 328.612 292.441 336.262 296.348C343.993 300.173 349.486 304.974 352.741 310.752V239.951ZM316.486 395.713C323.973 395.713 331.053 393.841 337.727 390.098C344.481 386.273 349.486 381.39 352.741 375.449V332.725C349.486 326.702 344.481 321.779 337.727 317.954C331.053 314.129 323.973 312.217 316.486 312.217C304.686 312.217 294.799 316.204 286.823 324.18C278.929 332.074 274.982 342.002 274.982 353.965C274.982 365.846 278.929 375.775 286.823 383.75C294.799 391.725 304.686 395.713 316.486 395.713Z" fill="white"/>
<path d="M490.256 290.488C501.893 290.488 512.513 293.296 522.116 298.911C531.719 304.445 539.287 312.095 544.821 321.86C550.437 331.626 553.244 342.409 553.244 354.209C553.244 372.031 547.141 387.046 534.934 399.253C522.808 411.379 507.915 417.441 490.256 417.441C478.618 417.441 467.958 414.674 458.273 409.141C448.671 403.607 441.102 395.998 435.568 386.313C430.035 376.629 427.268 365.928 427.268 354.209C427.268 336.224 433.33 321.128 445.456 308.921C457.582 296.632 472.515 290.488 490.256 290.488ZM490.256 312.461C478.781 312.461 469.138 316.449 461.325 324.424C453.594 332.399 449.729 342.327 449.729 354.209C449.729 365.846 453.594 375.653 461.325 383.628C469.138 391.522 478.781 395.469 490.256 395.469C501.649 395.469 511.252 391.481 519.064 383.506C526.877 375.531 530.783 365.765 530.783 354.209C530.783 342.327 526.877 332.399 519.064 324.424C511.252 316.449 501.649 312.461 490.256 312.461Z" fill="white"/>
<path d="M716.882 384.971C712.08 394.899 704.715 402.793 694.787 408.652C684.94 414.512 673.791 417.441 661.34 417.441C649.621 417.441 638.92 414.674 629.235 409.141C619.551 403.607 611.942 395.998 606.408 386.313C600.874 376.629 598.107 365.928 598.107 354.209C598.107 342.409 600.874 331.626 606.408 321.86C611.942 312.095 619.551 304.445 629.235 298.911C638.92 293.296 649.621 290.488 661.34 290.488C673.059 290.488 683.557 293.215 692.834 298.667C702.193 304.038 709.029 311.24 713.342 320.273L693.566 331.016C691.044 325.4 686.853 320.924 680.993 317.588C675.215 314.17 668.664 312.461 661.34 312.461C649.784 312.461 640.1 316.489 632.287 324.546C624.475 332.521 620.568 342.409 620.568 354.209C620.568 365.846 624.475 375.653 632.287 383.628C640.1 391.522 649.784 395.469 661.34 395.469C669.234 395.469 676.314 393.719 682.58 390.22C688.846 386.72 693.526 381.878 696.618 375.693L716.882 384.971Z" fill="white"/>
<path d="M810.329 417.441C800.808 417.441 791.408 415.854 782.131 412.681C772.935 409.507 765.407 405.275 759.548 399.985L769.069 382.773C773.789 387.331 780.015 391.074 787.746 394.004C795.477 396.852 802.924 398.276 810.085 398.276C817.084 398.276 822.78 396.73 827.175 393.638C831.651 390.464 833.889 386.517 833.889 381.797C833.889 378.135 832.587 375.083 829.982 372.642C827.378 370.2 824.001 368.328 819.851 367.026C815.7 365.643 811.102 364.422 806.057 363.364C801.092 362.225 796.088 360.882 791.042 359.336C786.078 357.708 781.521 355.755 777.37 353.477C773.22 351.117 769.842 347.78 767.238 343.467C764.634 339.072 763.332 333.823 763.332 327.72C763.332 316.652 767.604 307.7 776.149 300.864C784.694 293.947 795.843 290.488 809.597 290.488C818.142 290.488 826.361 291.831 834.255 294.517C842.23 297.202 848.781 301.027 853.908 305.991L843.898 323.447C839.667 319.297 834.011 316.042 826.931 313.682C819.851 311.24 813.34 310.02 807.399 310.02C801.052 310.02 795.965 311.484 792.141 314.414C788.316 317.262 786.403 321.047 786.403 325.767C786.403 329.103 787.705 331.911 790.31 334.189C792.914 336.387 796.291 338.177 800.441 339.561C804.592 340.863 809.149 342.124 814.113 343.345C819.159 344.484 824.204 345.949 829.25 347.739C834.296 349.448 838.894 351.564 843.044 354.087C847.194 356.61 850.572 360.15 853.176 364.707C855.78 369.264 857.082 374.676 857.082 380.942C857.082 391.522 852.728 400.27 844.021 407.188C835.313 414.023 824.082 417.441 810.329 417.441Z" fill="white"/>
<defs>
<clipPath id="clip0_2_5">
<rect width="749.647" height="354" fill="white"/>
</clipPath>
</defs>
</svg>
